<svg width="1200" height="800" viewBox="0 0 1200 800" fill="none" xmlns="http://www.w3.org/2000/svg">
  <rect width="1200" height="800" rx="48" fill="#020617"/>
  <rect x="70" y="80" width="1060" height="640" rx="32" fill="#111827"/>
  <rect x="126" y="138" width="250" height="526" rx="24" fill="#0F172A"/>
  <rect x="408" y="138" width="666" height="164" rx="24" fill="#0F172A"/>
  <rect x="408" y="334" width="318" height="330" rx="24" fill="#0F172A"/>
  <rect x="756" y="334" width="318" height="330" rx="24" fill="#0F172A"/>
  <path d="M471 238C525 176 571 165 629 192C683 217 717 224 786 176C835 141 902 156 1008 252" stroke="url(#paint0_linear)" stroke-width="18" stroke-linecap="round"/>
  <rect x="166" y="196" width="170" height="18" rx="9" fill="#334155"/>
  <rect x="166" y="238" width="122" height="18" rx="9" fill="#1E293B"/>
  <rect x="166" y="322" width="130" height="130" rx="20" fill="#1D4ED8"/>
  <rect x="320" y="322" width="16" height="130" rx="8" fill="#2563EB"/>
  <rect x="460" y="392" width="214" height="18" rx="9" fill="#334155"/>
  <rect x="460" y="432" width="180" height="18" rx="9" fill="#1E293B"/>
  <rect x="808" y="392" width="214" height="18" rx="9" fill="#334155"/>
  <rect x="808" y="432" width="180" height="18" rx="9" fill="#1E293B"/>
  <defs>
    <linearGradient id="paint0_linear" x1="471" y1="183" x2="1008" y2="252" gradientUnits="userSpaceOnUse">
      <stop stop-color="#38BDF8"/>
      <stop offset="1" stop-color="#22C55E"/>
    </linearGradient>
  </defs>
</svg>
